<svg width="142" height="142" viewBox="0 0 142 142" fill="none" xmlns="http://www.w3.org/2000/svg">
<g opacity="0.8">
<path d="M71.0018 5.64575C62.4194 5.64575 53.921 7.33619 45.9918 10.6205C38.0627 13.9049 30.8581 18.7189 24.7894 24.7876C18.7207 30.8563 13.9067 38.0609 10.6224 45.99C7.33802 53.9191 5.64758 62.4175 5.64758 71C5.64758 79.5824 7.33802 88.0808 10.6224 96.0099C13.9067 103.939 18.7207 111.144 24.7894 117.212C30.8581 123.281 38.0627 128.095 45.9918 131.379C53.921 134.664 62.4194 136.354 71.0018 136.354L71.0018 71V5.64575Z" fill="#FF1414"/>
<path d="M71.0018 136.354C79.5842 136.354 88.0826 134.664 96.0118 131.379C103.941 128.095 111.146 123.281 117.214 117.212C123.283 111.144 128.097 103.939 131.381 96.01C134.666 88.0809 136.356 79.5825 136.356 71C136.356 62.4176 134.666 53.9192 131.381 45.9901C128.097 38.0609 123.283 30.8563 117.214 24.7876C111.146 18.7189 103.941 13.905 96.0118 10.6206C88.0826 7.33624 79.5842 5.64581 71.0018 5.64581L71.0018 71L71.0018 136.354Z" fill="#FF1414"/>
</g>
<circle cx="71" cy="71" r="70" stroke="white" stroke-opacity="0.4" stroke-width="2"/>
<path d="M7.11103 43C3.17827 51.4614 1 60.7856 1 70.5806C1 81.0905 3.50783 91.0584 8 100" stroke="#FF1414" stroke-width="2" stroke-linecap="round"/>
<path d="M135.762 43C139.133 51.4614 141 60.7856 141 70.5806C141 81.0905 138.85 91.0584 135 100" stroke="#FF1414" stroke-width="2" stroke-linecap="round"/>
<path d="M107.526 85H34.4934C33.106 85 32 83.9564 32 82.6891V46.3109C32 45.025 33.1261 44 34.4934 44H107.506C108.894 44 110 45.0436 110 46.3109V82.6705C110.02 83.9564 108.894 85 107.526 85Z" stroke="white" stroke-width="1.5" stroke-miterlimit="10" stroke-linejoin="round"/>
<path d="M59.2313 38.4609H31.5214C28.8681 38.4609 26.707 40.5993 26.707 43.2459V85.5904C26.707 88.2158 28.8681 90.3542 31.5214 90.3542H59.2313" stroke="white" stroke-width="2" stroke-miterlimit="10" stroke-linejoin="round"/>
<path d="M82.7687 38.4609H110.479C113.132 38.4609 115.293 40.5993 115.293 43.2247V85.5693C115.293 88.1946 113.132 90.333 110.479 90.333H82.7687" stroke="white" stroke-width="2" stroke-miterlimit="10" stroke-linejoin="round"/>
<path d="M65.5 40C66.3284 40 67 39.3284 67 38.5C67 37.6716 66.3284 37 65.5 37C64.6716 37 64 37.6716 64 38.5C64 39.3284 64.6716 40 65.5 40Z" fill="white"/>
<path d="M76.5 40C77.3284 40 78 39.3284 78 38.5C78 37.6716 77.3284 37 76.5 37C75.6716 37 75 37.6716 75 38.5C75 39.3284 75.6716 40 76.5 40Z" fill="white"/>
<path d="M71 40C71.8284 40 72.5 39.3284 72.5 38.5C72.5 37.6716 71.8284 37 71 37C70.1716 37 69.5 37.6716 69.5 38.5C69.5 39.3284 70.1716 40 71 40Z" fill="white"/>
<path d="M65.5 92C66.3284 92 67 91.3284 67 90.5C67 89.6716 66.3284 89 65.5 89C64.6716 89 64 89.6716 64 90.5C64 91.3284 64.6716 92 65.5 92Z" fill="white"/>
<path d="M76.5 92C77.3284 92 78 91.3284 78 90.5C78 89.6716 77.3284 89 76.5 89C75.6716 89 75 89.6716 75 90.5C75 91.3284 75.6716 92 76.5 92Z" fill="white"/>
<path d="M71 92C71.8284 92 72.5 91.3284 72.5 90.5C72.5 89.6716 71.8284 89 71 89C70.1716 89 69.5 89.6716 69.5 90.5C69.5 91.3284 70.1716 92 71 92Z" fill="white"/>
<path d="M68 94V103.273L48 105.591V109H68.528H69.7103H94V105.591L74 103.273V94" stroke="white" stroke-width="2" stroke-miterlimit="10" stroke-linejoin="round"/>
<path d="M54 52C51.2213 52 48.5157 52.8903 46.28 54.5404C44.0444 56.1905 42.3962 58.5136 41.5773 61.1689C40.7585 63.8242 40.8119 66.672 41.7299 69.2946C42.6478 71.9173 44.382 74.1769 46.678 75.7419C48.9741 77.307 51.7112 78.0951 54.4879 77.9908C57.2646 77.8866 59.9349 76.8953 62.1071 75.1625C64.2792 73.4296 65.839 71.0464 66.5577 68.3622C67.2763 65.6781 67.116 62.8343 66.1003 60.2479L54 65V52Z" fill="white"/>
<path d="M83.1521 53.3644C81.8939 52.4375 80.3619 51.9582 78.7998 52.0029C77.2378 52.0476 75.7356 52.6136 74.5325 53.6109C73.3295 54.6083 72.4947 55.9795 72.1613 57.5061C71.8278 59.0328 72.0147 60.6272 72.6923 62.0353C73.3699 63.4435 74.4992 64.5844 75.9004 65.2763C77.3015 65.9683 78.8939 66.1715 80.4239 65.8537C81.9539 65.5358 83.3336 64.7151 84.3431 63.5223C85.3527 62.3295 85.9341 60.8332 85.9947 59.2717L83.5815 59.1779C83.5418 60.2007 83.161 61.1808 82.4997 61.9621C81.8384 62.7433 80.9348 63.2809 79.9326 63.4891C78.9305 63.6973 77.8875 63.5642 76.9698 63.1109C76.052 62.6577 75.3123 61.9104 74.8685 60.9881C74.4247 60.0658 74.3022 59.0215 74.5207 58.0215C74.7391 57.0216 75.2859 56.1234 76.0739 55.4702C76.8618 54.817 77.8458 54.4462 78.8689 54.4169C79.892 54.3877 80.8955 54.7016 81.7196 55.3087L83.1521 53.3644Z" fill="white"/>
<line x1="73.75" y1="71.25" x2="84.25" y2="71.25" stroke="white" stroke-width="1.5" stroke-linecap="round"/>
<line x1="91.75" y1="71.25" x2="102.25" y2="71.25" stroke="white" stroke-width="1.5" stroke-linecap="round"/>
<line x1="73.75" y1="75.25" x2="78.25" y2="75.25" stroke="white" stroke-width="1.5" stroke-linecap="round"/>
<line x1="91.75" y1="75.25" x2="96.25" y2="75.25" stroke="white" stroke-width="1.5" stroke-linecap="round"/>
<path d="M101.152 53.3644C99.8939 52.4375 98.3619 51.9582 96.7998 52.0029C95.2378 52.0476 93.7356 52.6136 92.5325 53.6109C91.3295 54.6083 90.4947 55.9795 90.1613 57.5061C89.8278 59.0328 90.0147 60.6272 90.6923 62.0353C91.3699 63.4435 92.4992 64.5844 93.9004 65.2763C95.3015 65.9683 96.8939 66.1715 98.4239 65.8537C99.9539 65.5358 101.334 64.7151 102.343 63.5223C103.353 62.3295 103.934 60.8332 103.995 59.2717L101.582 59.178C101.542 60.2007 101.161 61.1808 100.5 61.9621C99.8385 62.7434 98.9348 63.2809 97.9326 63.4891C96.9305 63.6973 95.8875 63.5642 94.9697 63.111C94.052 62.6578 93.3123 61.9105 92.8685 60.9881C92.4246 60.0658 92.3022 59.0215 92.5206 58.0215C92.7391 57.0215 93.2858 56.1234 94.0738 55.4702C94.8618 54.8169 95.8457 54.4461 96.8689 54.4169C97.892 54.3876 98.8955 54.7015 99.7196 55.3087L101.152 53.3644Z" fill="white"/>
</svg>
