<svg width="142" height="142" viewBox="0 0 142 142" fill="none" xmlns="http://www.w3.org/2000/svg">
<g opacity="0.8">
<path d="M71.0018 5.64575C62.4194 5.64575 53.921 7.33619 45.9918 10.6205C38.0627 13.9049 30.8581 18.7189 24.7894 24.7876C18.7207 30.8563 13.9067 38.0609 10.6224 45.99C7.33802 53.9191 5.64758 62.4175 5.64758 71C5.64758 79.5824 7.33802 88.0808 10.6224 96.0099C13.9067 103.939 18.7207 111.144 24.7894 117.212C30.8581 123.281 38.0627 128.095 45.9918 131.379C53.921 134.664 62.4194 136.354 71.0018 136.354L71.0018 71V5.64575Z" fill="#0BA82D"/>
<path d="M71.0018 136.354C79.5842 136.354 88.0826 134.664 96.0118 131.379C103.941 128.095 111.146 123.281 117.214 117.212C123.283 111.144 128.097 103.939 131.381 96.01C134.666 88.0809 136.356 79.5825 136.356 71C136.356 62.4176 134.666 53.9192 131.381 45.9901C128.097 38.0609 123.283 30.8563 117.214 24.7876C111.146 18.7189 103.941 13.905 96.0118 10.6206C88.0826 7.33624 79.5842 5.64581 71.0018 5.64581L71.0018 71L71.0018 136.354Z" fill="#0BA82D"/>
</g>
<circle cx="71" cy="71" r="70" stroke="white" stroke-opacity="0.4" stroke-width="2"/>
<path d="M7.11103 43C3.17827 51.4614 1 60.7856 1 70.5806C1 81.0905 3.50783 91.0584 8 100" stroke="#00FF38" stroke-width="2" stroke-linecap="round"/>
<path d="M135.762 43C139.133 51.4614 141 60.7856 141 70.5806C141 81.0905 138.85 91.0584 135 100" stroke="#00FF38" stroke-width="2" stroke-linecap="round"/>
<rect x="21.4314" y="51" width="99.1373" height="39.5968" rx="4" stroke="white" stroke-width="2"/>
<circle cx="31.5" cy="70.5" r="3.75" stroke="white" stroke-width="1.5"/>
<path d="M39.4374 78.5469H41.2775L43.8026 70.5212C44.3311 68.9161 44.7814 67.3501 45.2512 65.6862H45.3295C45.7993 67.3501 46.2495 68.9161 46.7584 70.5212L49.2836 78.5469H51.1824L46.3278 64.1985H44.292L39.4374 78.5469ZM41.9822 74.1621H48.5985V72.7332H41.9822V74.1621Z" fill="white"/>
<path d="M53.0106 78.5469H60.8798V77.0592H57.9827V64.6096H56.6124C55.849 65.0598 54.929 65.3926 53.637 65.6275V66.7824H56.2014V77.0592H53.0106V78.5469Z" fill="white"/>
<path d="M63.0073 78.5469H72.0118V77.0201H67.9598C67.2355 77.0201 66.3547 77.0788 65.6108 77.1571C68.919 73.6728 71.3267 71.0693 71.3267 68.4463C71.3267 65.9602 69.7215 64.3551 67.1572 64.3551C65.3368 64.3551 64.084 65.1772 62.9095 66.4496L63.9469 67.4675C64.7495 66.5279 65.7674 65.7841 66.9419 65.7841C68.7232 65.7841 69.5649 66.9194 69.5649 68.505C69.5649 70.7952 67.2159 73.3204 63.0073 77.5095V78.5469Z" fill="white"/>
<path d="M78.1522 78.821C80.7165 78.821 82.7719 77.3137 82.7719 74.8277C82.7719 72.9289 81.4017 71.6761 79.7182 71.2846V71.2063C81.2451 70.6386 82.263 69.562 82.263 67.8786C82.263 65.6275 80.5012 64.3551 78.0935 64.3551C76.4492 64.3551 75.1768 65.0794 74.1002 66.0777L75.0594 67.213C75.862 66.3909 76.8799 65.7841 78.0348 65.7841C79.5225 65.7841 80.4425 66.6454 80.4425 67.996C80.4425 69.4641 79.4442 70.6191 76.4884 70.6191V71.9893C79.7965 71.9893 80.9514 73.1051 80.9514 74.769C80.9514 76.335 79.7378 77.3333 78.0348 77.3333C76.3905 77.3333 75.3139 76.5503 74.4721 75.6694L73.5717 76.8439C74.5113 77.8814 75.9011 78.821 78.1522 78.821Z" fill="white"/>
<circle cx="96.2843" cy="62.0499" r="1.63125" fill="white"/>
<circle cx="96.2843" cy="68.7594" r="1.63125" fill="white"/>
<circle cx="96.2843" cy="80.1781" r="1.63125" fill="white"/>
<circle cx="104.441" cy="80.1781" r="1.63125" fill="white"/>
<circle cx="104.441" cy="73.4687" r="1.63125" fill="white"/>
<circle cx="112.597" cy="66.3126" r="1.63125" fill="white"/>
<circle cx="112.597" cy="80.1781" r="1.63125" fill="white"/>
</svg>
