<svg width="142" height="142" viewBox="0 0 142 142" fill="none" xmlns="http://www.w3.org/2000/svg">
<g opacity="0.8">
<path d="M71.0018 5.64575C62.4194 5.64575 53.921 7.33619 45.9918 10.6205C38.0627 13.9049 30.8581 18.7189 24.7894 24.7876C18.7207 30.8563 13.9067 38.0609 10.6224 45.99C7.33802 53.9191 5.64758 62.4175 5.64758 71C5.64758 79.5824 7.33802 88.0808 10.6224 96.0099C13.9067 103.939 18.7207 111.144 24.7894 117.212C30.8581 123.281 38.0627 128.095 45.9918 131.379C53.921 134.664 62.4194 136.354 71.0018 136.354L71.0018 71V5.64575Z" fill="#0BA82D"/>
<path d="M71.0018 136.354C79.5842 136.354 88.0826 134.664 96.0118 131.379C103.941 128.095 111.146 123.281 117.214 117.212C123.283 111.144 128.097 103.939 131.381 96.01C134.666 88.0809 136.356 79.5825 136.356 71C136.356 62.4176 134.666 53.9192 131.381 45.9901C128.097 38.0609 123.283 30.8563 117.214 24.7876C111.146 18.7189 103.941 13.905 96.0118 10.6206C88.0826 7.33624 79.5842 5.64581 71.0018 5.64581L71.0018 71L71.0018 136.354Z" fill="#0BA82D"/>
</g>
<circle cx="71" cy="71" r="70" stroke="white" stroke-opacity="0.4" stroke-width="2"/>
<path d="M7.11103 43C3.17827 51.4614 1 60.7856 1 70.5806C1 81.0905 3.50783 91.0584 8 100" stroke="#00FF38" stroke-width="2" stroke-linecap="round"/>
<path d="M135.762 43C139.133 51.4614 141 60.7856 141 70.5806C141 81.0905 138.85 91.0584 135 100" stroke="#2AFD58" stroke-width="2" stroke-linecap="round"/>
<rect x="47" y="32" width="48" height="80" rx="4" stroke="white" stroke-width="2"/>
<rect x="51.75" y="41.75" width="38.5" height="55.5" rx="1.25" stroke="white" stroke-width="1.5"/>
<rect x="65" y="36" width="13" height="3" rx="1.5" fill="white"/>
<rect x="67.75" y="100.75" width="7.5" height="7.5" rx="3.75" fill="white" stroke="white" stroke-width="1.5"/>
<path d="M71.5 48.9645C71.5 48.4318 71.9323 47.9967 72.4638 48.032C75.5903 48.2402 78.5752 49.457 80.9625 51.5131C83.5941 53.7796 85.3248 56.9154 85.8397 60.3502C86.3547 63.7849 85.6197 67.2904 83.7684 70.2289C81.9171 73.1675 79.0726 75.344 75.7522 76.3625C72.4317 77.381 68.856 77.1739 65.6755 75.7787C62.4949 74.3836 59.9207 71.8932 58.4211 68.7605C56.9216 65.6278 56.5963 62.0609 57.5045 58.7086C58.3283 55.6675 60.1175 52.9863 62.5895 51.0609C63.0098 50.7335 63.6117 50.8514 63.9104 51.2925C64.2091 51.7335 64.0909 52.3304 63.674 52.662C61.5831 54.3253 60.0693 56.618 59.3663 59.213C58.579 62.1193 58.861 65.2117 60.161 67.9276C61.4611 70.6436 63.6928 72.8027 66.4503 74.0122C69.2078 75.2218 72.3078 75.4014 75.1865 74.5184C78.0652 73.6354 80.5313 71.7484 82.1363 69.2008C83.7413 66.6531 84.3785 63.614 83.9321 60.6362C83.4857 57.6584 81.9852 54.9397 79.7037 52.9747C77.6666 51.2202 75.1276 50.1707 72.4636 49.9659C71.9325 49.9251 71.5 49.4971 71.5 48.9645Z" fill="white"/>
<path d="M71.5 52.9715C71.5 52.435 71.9359 51.9953 72.4702 52.0449C74.396 52.2236 76.242 52.9317 77.7994 54.0995C79.6168 55.4624 80.9432 57.3779 81.5796 59.5586C82.2159 61.7392 82.128 64.0675 81.3288 66.1939C80.5296 68.3203 79.0624 70.1302 77.1473 71.352C75.2322 72.5738 72.9726 73.1415 70.7074 72.97C68.4423 72.7986 66.2938 71.8971 64.5845 70.401C62.8751 68.9048 61.6971 66.8947 61.2271 64.6722C60.8244 62.7676 60.9603 60.7952 61.6099 58.9734C61.7901 58.4681 62.3725 58.258 62.8591 58.4842C63.3456 58.7103 63.551 59.2869 63.3815 59.796C62.9029 61.2329 62.8124 62.7772 63.1281 64.2702C63.5111 66.0815 64.4711 67.7196 65.8642 68.9389C67.2572 70.1582 69.0081 70.8929 70.8541 71.0326C72.7001 71.1723 74.5416 70.7096 76.1023 69.714C77.663 68.7183 78.8587 67.2433 79.51 65.5104C80.1613 63.7774 80.233 61.88 79.7144 60.1029C79.1958 58.3257 78.1148 56.7647 76.6337 55.654C75.4128 54.7385 73.9742 54.1696 72.4694 53.9981C71.9364 53.9373 71.5 53.508 71.5 52.9715Z" fill="white"/>
<path d="M71.5 56.9413C71.5 56.4215 71.9236 55.993 72.4381 56.068C73.2191 56.182 73.9755 56.4376 74.6692 56.8249C75.6379 57.3659 76.452 58.1458 77.0339 59.0904C77.6159 60.035 77.9464 61.1128 77.994 62.2213C78.0416 63.3298 77.8046 64.432 77.3057 65.4229C76.8068 66.4139 76.0625 67.2607 75.1438 67.8827C74.225 68.5046 73.1623 68.881 72.0569 68.9761C70.9515 69.0712 69.8401 68.8817 68.8287 68.4257C68.1044 68.0992 67.4485 67.6438 66.8919 67.0842C66.5252 66.7157 66.6171 66.1202 67.0347 65.8106C67.4523 65.5009 68.0367 65.5977 68.4245 65.9439C68.7744 66.2565 69.1714 66.515 69.6024 66.7094C70.3209 67.0333 71.1104 67.1679 71.8956 67.1003C72.6808 67.0328 73.4357 66.7654 74.0884 66.3236C74.741 65.8818 75.2697 65.2803 75.6241 64.5763C75.9785 63.8724 76.1469 63.0894 76.1131 62.302C76.0793 61.5146 75.8445 60.749 75.4311 60.078C75.0176 59.407 74.4394 58.853 73.7513 58.4687C73.3384 58.2382 72.8943 58.0733 72.4349 57.9783C71.9257 57.8731 71.5 57.4612 71.5 56.9413Z" fill="white"/>
<line x1="58.75" y1="83.25" x2="69.25" y2="83.25" stroke="white" stroke-width="1.5" stroke-linecap="round"/>
<line x1="58.75" y1="87.25" x2="63.25" y2="87.25" stroke="white" stroke-width="1.5" stroke-linecap="round"/>
<line x1="73.75" y1="87.25" x2="78.25" y2="87.25" stroke="white" stroke-width="1.5" stroke-linecap="round"/>
<line x1="73.75" y1="83.25" x2="84.25" y2="83.25" stroke="white" stroke-width="1.5" stroke-linecap="round"/>
</svg>
