<svg width="36" height="36" viewBox="0 0 36 36" fill="none" xmlns="http://www.w3.org/2000/svg">
<path d="M15.48 15L20.66 16.54V13.7L15.48 12.16V15Z" fill="#9FA1A0"/>
<path d="M8.99999 12.04L12.84 9.09999V3.09999L3.79999 10.02V10.12L8.99999 12.16V12.04Z" fill="#C7000B"/>
<path d="M13.42 16.1V20.92L15.48 21.48V26.64L8.99999 24.12V12.16L3.79999 10.12V28.1L20.66 34.66V18.18L15.08 16.52L13.42 16.1Z" fill="#C7000B"/>
<path d="M32.34 7.76L15.48 1.2V10.24L20.66 11.78V9.22L27.16 11.74V11.82L32.34 7.78V7.76Z" fill="#9FA1A0"/>
<path d="M27.16 11.82V23.82L22.92 27.04V33.04L32.34 25.84V7.78L27.16 11.82Z" fill="#595758"/>
</svg>
